<?xml version="1.0" encoding="utf-8"?>
<!-- Generator: Adobe Illustrator 22.1.0, SVG Export Plug-In . SVG Version: 6.00 Build 0)  -->
<svg version="1.0" id="Layer_1" xmlns="http://www.w3.org/2000/svg" xmlns:xlink="http://www.w3.org/1999/xlink" x="0px" y="0px"
	 viewBox="0 0 881.8 388" style="enable-background:new 0 0 881.8 388;" xml:space="preserve">
<g>
	<path d="M104.5,334.2c0,6.8,1.5,12.3,4.4,16.5c2.9,4.2,6.3,7.5,10,9.9c3.8,2.4,7.4,4.1,11,5.1c3.6,1,6,1.6,7.4,1.8
		c1.3,0.3,2.3,0.9,2.9,1.6c0.6,0.8,0.8,1.5,0.6,2.4c-0.2,0.8-0.6,1.6-1.4,2.3c-0.8,0.7-1.8,1-3.1,1H5.3c-1.3,0-2.4-0.3-3.1-1
		c-0.8-0.7-1.2-1.4-1.4-2.3c-0.2-0.8,0-1.6,0.6-2.4c0.6-0.8,1.5-1.3,2.9-1.6c1.3-0.2,3.8-0.8,7.4-1.8c3.6-1,7.3-2.7,11-5.1
		c3.8-2.4,7.1-5.7,10-9.9c2.9-4.2,4.4-9.7,4.4-16.5V53.9c0-2.2-1-3.5-3-4c-0.3,0-1.5-0.3-3.6-0.8c-2.1-0.5-4.5-1.1-7.1-1.8
		c-2.7-0.7-5.1-1.3-7.4-1.8s-3.6-0.8-4.1-1c-2.2-0.5-3.3-1.6-3.4-3.4c-0.1-1.8,1.1-3,3.6-3.6c6.5-1.5,13.5-3.5,21.1-6.1
		C40.7,29,48.3,26,56,22.8c7.7-3.3,15.1-6.8,22.3-10.5c7.2-3.8,13.6-7.5,19.3-11.4c1.5-1,3-1.4,4.6-1.3c1.6,0.2,2.4,1.4,2.4,3.8
		V334.2z"/>
	<path d="M225.5,242.2c-2.7,0-4,1.4-4,4.3c0,17,1.5,31.6,4.5,43.8c3,12.2,7.4,22.1,13.1,29.9s12.9,13.5,21.5,17.1
		c8.6,3.7,18.5,5.5,29.9,5.5c8.7,0,16.4-0.9,23.1-2.8c6.8-1.8,12.6-4,17.6-6.4c5-2.4,9.1-4.7,12.3-6.9c3.2-2.2,5.5-3.6,7-4.3
		c2.3-1,4.2-0.8,5.5,0.6c1.3,1.4,1.3,3.5,0,6.4c-0.5,1-1.6,3-3.4,5.9c-1.8,2.9-4.3,6.3-7.6,10.1c-3.3,3.8-7.5,7.8-12.5,12
		c-5,4.2-11,8-17.9,11.5c-6.9,3.5-14.8,6.4-23.8,8.6c-8.9,2.3-18.9,3.4-29.9,3.4c-16.7,0-31.8-2.6-45.3-7.9s-25-12.9-34.6-22.9
		c-9.6-10-17-22.2-22.3-36.5c-5.3-14.3-7.9-30.5-7.9-48.5c0-19.7,3.3-37.1,9.8-52.3c6.5-15.2,15-27.9,25.5-38.1s22.4-18,35.8-23.4
		c13.3-5.3,26.9-8,40.8-8c13,0,24.5,1.8,34.4,5.4c9.9,3.6,18.5,8.3,25.8,14s13.3,12.2,18,19.3c4.8,7.1,8.6,14.1,11.5,21.1
		c2.9,7,5,13.6,6.1,19.8c1.2,6.2,1.8,11.1,1.8,14.8c0,1.7-0.5,2.8-1.6,3.5c-1.1,0.7-2.5,1-4.4,1H225.5z M222.7,225.7
		c-0.3,2.2,0.7,3.3,3,3.3c0.5,0,2.2,0,5-0.1c2.8-0.1,6.3-0.2,10.4-0.4c4.1-0.2,8.5-0.3,13.1-0.5c4.7-0.2,9.1-0.3,13.4-0.5
		c4.3-0.2,7.9-0.3,11-0.4c3.1-0.1,5-0.2,5.9-0.4c2.7-0.2,5.5-1.3,8.4-3.5c2.9-2.2,4.4-5.9,4.4-11.3c0-4.8-0.7-10.4-2-16.8
		c-1.3-6.3-3.5-12.3-6.4-18c-2.9-5.7-6.6-10.5-11.1-14.4c-4.5-3.9-10-5.9-16.5-5.9c-5.2,0-9.7,1.4-13.5,4.1
		c-3.8,2.8-7.1,6.3-9.9,10.8c-2.8,4.4-5,9.3-6.9,14.6c-1.8,5.3-3.3,10.5-4.5,15.6c-1.2,5.1-2,9.8-2.6,14
		C223.3,220.3,222.9,223.5,222.7,225.7z"/>
	<path d="M548.7,143.4c13.3,0,25,1.8,35,5.3s18.6,8.3,25.9,14.3s13.3,12.8,18,20.5c4.8,7.7,8.5,15.8,11.3,24.3s4.7,17,5.8,25.5
		c1.1,8.5,1.6,16.5,1.6,24c0,18.8-2.3,35.8-6.9,51c-4.6,15.2-11.5,28.2-20.8,39c-9.3,10.8-20.9,19.2-34.9,25s-30.3,8.8-49,8.8
		c-10.5,0-19.8-0.7-27.8-2c-8-1.3-15.3-3.3-21.9-5.8c-6.6-2.5-12.7-5.6-18.3-9.4c-5.6-3.8-11.2-8.1-16.9-13.1
		c-0.7-0.5-1.3-0.8-1.9-1c-0.6-0.2-1.3,0.2-2.1,1c-1.8,1.5-4.4,3.7-7.6,6.6c-3.3,2.9-6.7,6.1-10.4,9.6c-3.7,3.5-7.3,7-10.9,10.5
		c-3.6,3.5-6.5,6.5-8.6,9c-1.3,1.5-2.8,2-4.3,1.4c-1.5-0.6-2.3-2-2.3-4.1v-164c0-13.7,0-27.2,0-40.6c0-13.4,0-26.2,0-38.4
		c0-12.2,0-23.4,0.1-33.8c0.1-10.3,0.1-19.3,0.1-27c0-7.7,0-15.8,0-24.5c0-2.2-1-3.5-3-4c-0.3,0-1.5-0.3-3.6-0.9
		c-2.1-0.6-4.5-1.2-7.1-1.8c-2.7-0.6-5.1-1.2-7.4-1.8c-2.3-0.6-3.6-0.9-4.1-0.9c-2.2-0.5-3.3-1.7-3.4-3.5c-0.1-1.8,1.1-3,3.6-3.5
		c6.5-1.5,13.5-3.5,21.1-6.1c7.6-2.6,15.2-5.5,22.9-8.8c7.7-3.3,15.1-6.8,22.2-10.5c7.2-3.8,13.6-7.5,19.3-11.4c1.5-1,3-1.4,4.6-1.3
		c1.6,0.2,2.4,1.4,2.4,3.8v173.3c0.3,0.7,0.8,1.1,1.5,1.3c0.7,0.2,1.3-0.2,1.8-1c1.5-1.8,4-4.7,7.5-8.6c3.5-3.9,8.3-7.8,14.4-11.8
		c6.1-3.9,13.6-7.3,22.5-10.3C526.3,144.9,536.7,143.4,548.7,143.4z M573.7,268.9c0-3.8,0-8.8-0.1-15c-0.1-6.2-0.6-12.8-1.5-20
		c-0.9-7.2-2.4-14.4-4.4-21.8c-2-7.3-4.9-13.9-8.8-19.8c-3.8-5.8-8.8-10.6-14.8-14.4s-13.4-5.6-22.3-5.6c-11.3,0-20.4,2.1-27.3,6.3
		c-6.8,4.2-12.1,9.3-15.8,15.3c-3.7,6-6.1,12.4-7.3,19.1c-1.2,6.8-1.8,12.7-1.8,17.9v67.5c0,6.3,0.7,13.4,2.1,21.3
		c1.4,7.8,4,15.3,7.6,22.3c3.7,7,8.7,12.9,15,17.6c6.3,4.8,14.4,7.1,24.3,7.1c9.8,0,18.2-2.5,25.1-7.5c6.9-5,12.6-11.9,17-20.6
		c4.4-8.8,7.6-19.1,9.6-31C572.7,295.6,573.7,282.8,573.7,268.9z"/>
	<path d="M747,242.2c-2.7,0-4,1.4-4,4.3c0,17,1.5,31.6,4.5,43.8c3,12.2,7.4,22.1,13.1,29.9s12.9,13.5,21.5,17.1
		c8.6,3.7,18.5,5.5,29.9,5.5c8.7,0,16.4-0.9,23.1-2.8c6.8-1.8,12.6-4,17.6-6.4c5-2.4,9.1-4.7,12.3-6.9c3.2-2.2,5.5-3.6,7-4.3
		c2.3-1,4.2-0.8,5.5,0.6c1.3,1.4,1.3,3.5,0,6.4c-0.5,1-1.6,3-3.4,5.9c-1.8,2.9-4.3,6.3-7.6,10.1c-3.3,3.8-7.5,7.8-12.5,12
		c-5,4.2-11,8-17.9,11.5c-6.9,3.5-14.8,6.4-23.8,8.6c-8.9,2.3-18.9,3.4-29.9,3.4c-16.7,0-31.7-2.6-45.2-7.9s-25-12.9-34.6-22.9
		c-9.6-10-17-22.2-22.3-36.5c-5.3-14.3-7.9-30.5-7.9-48.5c0-19.7,3.3-37.1,9.8-52.3c6.5-15.2,15-27.9,25.5-38.1s22.4-18,35.8-23.4
		c13.3-5.3,26.9-8,40.7-8c13,0,24.5,1.8,34.4,5.4c9.9,3.6,18.5,8.3,25.8,14s13.3,12.2,18,19.3c4.8,7.1,8.6,14.1,11.5,21.1
		c2.9,7,5,13.6,6.1,19.8c1.2,6.2,1.8,11.1,1.8,14.8c0,1.7-0.5,2.8-1.6,3.5c-1.1,0.7-2.5,1-4.4,1H747z M744.2,225.7
		c-0.3,2.2,0.7,3.3,3,3.3c0.5,0,2.2,0,5-0.1c2.8-0.1,6.3-0.2,10.4-0.4c4.1-0.2,8.5-0.3,13.1-0.5c4.7-0.2,9.1-0.3,13.4-0.5
		c4.3-0.2,7.9-0.3,11-0.4c3.1-0.1,5-0.2,5.9-0.4c2.7-0.2,5.5-1.3,8.4-3.5c2.9-2.2,4.4-5.9,4.4-11.3c0-4.8-0.7-10.4-2-16.8
		c-1.3-6.3-3.5-12.3-6.4-18c-2.9-5.7-6.6-10.5-11.1-14.4c-4.5-3.9-10-5.9-16.5-5.9c-5.2,0-9.7,1.4-13.5,4.1
		c-3.8,2.8-7.1,6.3-9.9,10.8c-2.8,4.4-5,9.3-6.9,14.6c-1.8,5.3-3.3,10.5-4.5,15.6c-1.2,5.1-2,9.8-2.6,14
		C744.8,220.3,744.4,223.5,744.2,225.7z"/>
</g>
</svg>
